<mxfile host="app.diagrams.net" modified="2023-02-06T03:47:09.913Z" agent="5.0 (Macintosh; Intel Mac OS X 10_15_7) AppleWebKit/537.36 (KHTML, like Gecko) Chrome/109.0.0.0 Safari/537.36" etag="X7cXjdvpdgiRXYmv9pZz" version="20.8.16" type="github">
  <diagram id="C5RBs43oDa-KdzZeNtuy" name="Page-1">
    <mxGraphModel dx="984" dy="555" grid="1" gridSize="10" guides="1" tooltips="1" connect="1" arrows="1" fold="1" page="1" pageScale="1" pageWidth="827" pageHeight="1169" math="0" shadow="0">
      <root>
        <mxCell id="WIyWlLk6GJQsqaUBKTNV-0" />
        <mxCell id="WIyWlLk6GJQsqaUBKTNV-1" parent="WIyWlLk6GJQsqaUBKTNV-0" />
        <mxCell id="bAx6qzX-YRpUmAE7W-1l-2" style="edgeStyle=orthogonalEdgeStyle;rounded=1;hachureGap=4;orthogonalLoop=1;jettySize=auto;html=1;entryX=0;entryY=0.5;entryDx=0;entryDy=0;strokeColor=#006658;fontFamily=Architects Daughter;fontSource=https%3A%2F%2Ffonts.googleapis.com%2Fcss%3Ffamily%3DArchitects%2BDaughter;fontSize=16;fontColor=#5C5C5C;fillColor=#21C0A5;sketch=1;curveFitting=1;jiggle=2;" edge="1" parent="WIyWlLk6GJQsqaUBKTNV-1" source="WIyWlLk6GJQsqaUBKTNV-3" target="bAx6qzX-YRpUmAE7W-1l-0">
          <mxGeometry relative="1" as="geometry" />
        </mxCell>
        <mxCell id="WIyWlLk6GJQsqaUBKTNV-3" value="需求评审" style="rounded=1;whiteSpace=wrap;html=1;fontSize=12;glass=0;strokeWidth=1;shadow=0;fillColor=#21C0A5;strokeColor=#006658;labelBackgroundColor=none;fontColor=#5C5C5C;sketch=1;curveFitting=1;jiggle=2;" parent="WIyWlLk6GJQsqaUBKTNV-1" vertex="1">
          <mxGeometry x="50" y="90" width="90" height="50" as="geometry" />
        </mxCell>
        <mxCell id="bAx6qzX-YRpUmAE7W-1l-7" style="edgeStyle=orthogonalEdgeStyle;rounded=1;hachureGap=4;orthogonalLoop=1;jettySize=auto;html=1;entryX=0;entryY=0.5;entryDx=0;entryDy=0;strokeColor=#006658;fontFamily=Architects Daughter;fontSource=https%3A%2F%2Ffonts.googleapis.com%2Fcss%3Ffamily%3DArchitects%2BDaughter;fontSize=16;fontColor=#5C5C5C;fillColor=#21C0A5;sketch=1;curveFitting=1;jiggle=2;" edge="1" parent="WIyWlLk6GJQsqaUBKTNV-1" source="bAx6qzX-YRpUmAE7W-1l-0" target="bAx6qzX-YRpUmAE7W-1l-1">
          <mxGeometry relative="1" as="geometry" />
        </mxCell>
        <mxCell id="bAx6qzX-YRpUmAE7W-1l-8" style="edgeStyle=orthogonalEdgeStyle;rounded=1;hachureGap=4;orthogonalLoop=1;jettySize=auto;html=1;entryX=0.5;entryY=0;entryDx=0;entryDy=0;strokeColor=#006658;fontFamily=Architects Daughter;fontSource=https%3A%2F%2Ffonts.googleapis.com%2Fcss%3Ffamily%3DArchitects%2BDaughter;fontSize=16;fontColor=#5C5C5C;fillColor=#21C0A5;sketch=1;curveFitting=1;jiggle=2;" edge="1" parent="WIyWlLk6GJQsqaUBKTNV-1" source="bAx6qzX-YRpUmAE7W-1l-0" target="bAx6qzX-YRpUmAE7W-1l-3">
          <mxGeometry relative="1" as="geometry" />
        </mxCell>
        <mxCell id="bAx6qzX-YRpUmAE7W-1l-0" value="交互评审" style="rounded=1;whiteSpace=wrap;html=1;fontSize=12;glass=0;strokeWidth=1;shadow=0;fillColor=#e51400;strokeColor=#B20000;labelBackgroundColor=none;fontColor=#000033;sketch=1;curveFitting=1;jiggle=2;" vertex="1" parent="WIyWlLk6GJQsqaUBKTNV-1">
          <mxGeometry x="200" y="90" width="90" height="50" as="geometry" />
        </mxCell>
        <mxCell id="bAx6qzX-YRpUmAE7W-1l-12" style="edgeStyle=orthogonalEdgeStyle;rounded=1;hachureGap=4;orthogonalLoop=1;jettySize=auto;html=1;exitX=1;exitY=0.5;exitDx=0;exitDy=0;entryX=0;entryY=0.5;entryDx=0;entryDy=0;strokeColor=#006658;fontFamily=Architects Daughter;fontSource=https%3A%2F%2Ffonts.googleapis.com%2Fcss%3Ffamily%3DArchitects%2BDaughter;fontSize=16;fontColor=#000033;fillColor=#21C0A5;sketch=1;curveFitting=1;jiggle=2;" edge="1" parent="WIyWlLk6GJQsqaUBKTNV-1" source="bAx6qzX-YRpUmAE7W-1l-1" target="bAx6qzX-YRpUmAE7W-1l-11">
          <mxGeometry relative="1" as="geometry" />
        </mxCell>
        <mxCell id="bAx6qzX-YRpUmAE7W-1l-1" value="视觉评审" style="rounded=1;whiteSpace=wrap;html=1;fontSize=12;glass=0;strokeWidth=1;shadow=0;fillColor=#21C0A5;strokeColor=#006658;labelBackgroundColor=none;fontColor=#5C5C5C;sketch=1;curveFitting=1;jiggle=2;" vertex="1" parent="WIyWlLk6GJQsqaUBKTNV-1">
          <mxGeometry x="350" y="90" width="90" height="50" as="geometry" />
        </mxCell>
        <mxCell id="bAx6qzX-YRpUmAE7W-1l-5" style="edgeStyle=orthogonalEdgeStyle;rounded=1;hachureGap=4;orthogonalLoop=1;jettySize=auto;html=1;entryX=0;entryY=0.5;entryDx=0;entryDy=0;strokeColor=#006658;fontFamily=Architects Daughter;fontSource=https%3A%2F%2Ffonts.googleapis.com%2Fcss%3Ffamily%3DArchitects%2BDaughter;fontSize=16;fontColor=#5C5C5C;fillColor=#21C0A5;sketch=1;curveFitting=1;jiggle=2;" edge="1" parent="WIyWlLk6GJQsqaUBKTNV-1" source="bAx6qzX-YRpUmAE7W-1l-3" target="bAx6qzX-YRpUmAE7W-1l-4">
          <mxGeometry relative="1" as="geometry" />
        </mxCell>
        <mxCell id="bAx6qzX-YRpUmAE7W-1l-3" value="技术方案评审" style="rounded=1;whiteSpace=wrap;html=1;fontSize=12;glass=0;strokeWidth=1;shadow=0;fillColor=#21C0A5;strokeColor=#006658;labelBackgroundColor=none;fontColor=#5C5C5C;sketch=1;curveFitting=1;jiggle=2;" vertex="1" parent="WIyWlLk6GJQsqaUBKTNV-1">
          <mxGeometry x="200" y="190" width="90" height="50" as="geometry" />
        </mxCell>
        <mxCell id="bAx6qzX-YRpUmAE7W-1l-13" style="edgeStyle=orthogonalEdgeStyle;rounded=1;hachureGap=4;orthogonalLoop=1;jettySize=auto;html=1;entryX=0;entryY=0.5;entryDx=0;entryDy=0;strokeColor=#006658;fontFamily=Architects Daughter;fontSource=https%3A%2F%2Ffonts.googleapis.com%2Fcss%3Ffamily%3DArchitects%2BDaughter;fontSize=16;fontColor=#000033;fillColor=#21C0A5;sketch=1;curveFitting=1;jiggle=2;" edge="1" parent="WIyWlLk6GJQsqaUBKTNV-1" source="bAx6qzX-YRpUmAE7W-1l-4" target="bAx6qzX-YRpUmAE7W-1l-11">
          <mxGeometry relative="1" as="geometry" />
        </mxCell>
        <mxCell id="bAx6qzX-YRpUmAE7W-1l-14" style="edgeStyle=orthogonalEdgeStyle;rounded=1;hachureGap=4;orthogonalLoop=1;jettySize=auto;html=1;entryX=0.5;entryY=0;entryDx=0;entryDy=0;strokeColor=#006658;fontFamily=Architects Daughter;fontSource=https%3A%2F%2Ffonts.googleapis.com%2Fcss%3Ffamily%3DArchitects%2BDaughter;fontSize=16;fontColor=#000033;fillColor=#21C0A5;sketch=1;curveFitting=1;jiggle=2;" edge="1" parent="WIyWlLk6GJQsqaUBKTNV-1" source="bAx6qzX-YRpUmAE7W-1l-4" target="bAx6qzX-YRpUmAE7W-1l-6">
          <mxGeometry relative="1" as="geometry" />
        </mxCell>
        <mxCell id="bAx6qzX-YRpUmAE7W-1l-4" value="接口定义" style="rounded=1;whiteSpace=wrap;html=1;fontSize=12;glass=0;strokeWidth=1;shadow=0;fillColor=#ffcd28;strokeColor=#d79b00;labelBackgroundColor=none;fontStyle=1;gradientColor=#ffa500;sketch=1;curveFitting=1;jiggle=2;" vertex="1" parent="WIyWlLk6GJQsqaUBKTNV-1">
          <mxGeometry x="350" y="190" width="90" height="50" as="geometry" />
        </mxCell>
        <mxCell id="bAx6qzX-YRpUmAE7W-1l-17" style="edgeStyle=orthogonalEdgeStyle;rounded=1;hachureGap=4;orthogonalLoop=1;jettySize=auto;html=1;entryX=0;entryY=0.5;entryDx=0;entryDy=0;strokeColor=#006658;fontFamily=Architects Daughter;fontSource=https%3A%2F%2Ffonts.googleapis.com%2Fcss%3Ffamily%3DArchitects%2BDaughter;fontSize=16;fontColor=#000033;fillColor=#21C0A5;sketch=1;curveFitting=1;jiggle=2;" edge="1" parent="WIyWlLk6GJQsqaUBKTNV-1" source="bAx6qzX-YRpUmAE7W-1l-6" target="bAx6qzX-YRpUmAE7W-1l-15">
          <mxGeometry relative="1" as="geometry" />
        </mxCell>
        <mxCell id="bAx6qzX-YRpUmAE7W-1l-6" value="后端开发" style="rounded=1;whiteSpace=wrap;html=1;fontSize=12;glass=0;strokeWidth=1;shadow=0;fillColor=#fff2cc;strokeColor=#d6b656;labelBackgroundColor=none;sketch=1;curveFitting=1;jiggle=2;gradientColor=#ffd966;" vertex="1" parent="WIyWlLk6GJQsqaUBKTNV-1">
          <mxGeometry x="350" y="290" width="90" height="50" as="geometry" />
        </mxCell>
        <mxCell id="bAx6qzX-YRpUmAE7W-1l-18" style="edgeStyle=orthogonalEdgeStyle;rounded=1;hachureGap=4;orthogonalLoop=1;jettySize=auto;html=1;strokeColor=#006658;fontFamily=Architects Daughter;fontSource=https%3A%2F%2Ffonts.googleapis.com%2Fcss%3Ffamily%3DArchitects%2BDaughter;fontSize=16;fontColor=#000033;fillColor=#21C0A5;sketch=1;curveFitting=1;jiggle=2;" edge="1" parent="WIyWlLk6GJQsqaUBKTNV-1" source="bAx6qzX-YRpUmAE7W-1l-11" target="bAx6qzX-YRpUmAE7W-1l-15">
          <mxGeometry relative="1" as="geometry" />
        </mxCell>
        <mxCell id="bAx6qzX-YRpUmAE7W-1l-11" value="前端开发" style="rounded=1;whiteSpace=wrap;html=1;fontSize=12;glass=0;strokeWidth=1;shadow=0;fillColor=#fff2cc;strokeColor=#d6b656;labelBackgroundColor=none;sketch=1;curveFitting=1;jiggle=2;gradientColor=#ffd966;" vertex="1" parent="WIyWlLk6GJQsqaUBKTNV-1">
          <mxGeometry x="500" y="90" width="90" height="50" as="geometry" />
        </mxCell>
        <mxCell id="bAx6qzX-YRpUmAE7W-1l-19" style="edgeStyle=orthogonalEdgeStyle;rounded=1;hachureGap=4;orthogonalLoop=1;jettySize=auto;html=1;entryX=0;entryY=0.5;entryDx=0;entryDy=0;strokeColor=#006658;fontFamily=Architects Daughter;fontSource=https%3A%2F%2Ffonts.googleapis.com%2Fcss%3Ffamily%3DArchitects%2BDaughter;fontSize=16;fontColor=#000033;fillColor=#21C0A5;sketch=1;curveFitting=1;jiggle=2;" edge="1" parent="WIyWlLk6GJQsqaUBKTNV-1" source="bAx6qzX-YRpUmAE7W-1l-15" target="bAx6qzX-YRpUmAE7W-1l-16">
          <mxGeometry relative="1" as="geometry" />
        </mxCell>
        <mxCell id="bAx6qzX-YRpUmAE7W-1l-15" value="前后端联调" style="rounded=1;whiteSpace=wrap;html=1;fontSize=12;glass=0;strokeWidth=1;shadow=0;fillColor=#21C0A5;strokeColor=#006658;labelBackgroundColor=none;fontColor=#5C5C5C;sketch=1;curveFitting=1;jiggle=2;" vertex="1" parent="WIyWlLk6GJQsqaUBKTNV-1">
          <mxGeometry x="500" y="290" width="90" height="50" as="geometry" />
        </mxCell>
        <mxCell id="bAx6qzX-YRpUmAE7W-1l-21" style="edgeStyle=orthogonalEdgeStyle;rounded=1;hachureGap=4;orthogonalLoop=1;jettySize=auto;html=1;strokeColor=#006658;fontFamily=Architects Daughter;fontSource=https%3A%2F%2Ffonts.googleapis.com%2Fcss%3Ffamily%3DArchitects%2BDaughter;fontSize=16;fontColor=#000033;fillColor=#21C0A5;sketch=1;curveFitting=1;jiggle=2;" edge="1" parent="WIyWlLk6GJQsqaUBKTNV-1" source="bAx6qzX-YRpUmAE7W-1l-16" target="bAx6qzX-YRpUmAE7W-1l-20">
          <mxGeometry relative="1" as="geometry" />
        </mxCell>
        <mxCell id="bAx6qzX-YRpUmAE7W-1l-16" value="提测" style="rounded=1;whiteSpace=wrap;html=1;fontSize=12;glass=0;strokeWidth=1;shadow=0;fillColor=#21C0A5;strokeColor=#006658;labelBackgroundColor=none;fontColor=#5C5C5C;sketch=1;curveFitting=1;jiggle=2;" vertex="1" parent="WIyWlLk6GJQsqaUBKTNV-1">
          <mxGeometry x="640" y="130" width="90" height="50" as="geometry" />
        </mxCell>
        <mxCell id="bAx6qzX-YRpUmAE7W-1l-24" style="edgeStyle=orthogonalEdgeStyle;rounded=1;hachureGap=4;orthogonalLoop=1;jettySize=auto;html=1;exitX=0.5;exitY=1;exitDx=0;exitDy=0;entryX=0.5;entryY=0;entryDx=0;entryDy=0;fontFamily=Architects Daughter;fontSource=https%3A%2F%2Ffonts.googleapis.com%2Fcss%3Ffamily%3DArchitects%2BDaughter;fontSize=16;sketch=1;curveFitting=1;jiggle=2;" edge="1" parent="WIyWlLk6GJQsqaUBKTNV-1" source="bAx6qzX-YRpUmAE7W-1l-20" target="bAx6qzX-YRpUmAE7W-1l-23">
          <mxGeometry relative="1" as="geometry" />
        </mxCell>
        <mxCell id="bAx6qzX-YRpUmAE7W-1l-20" value="测试" style="rounded=1;whiteSpace=wrap;html=1;fontSize=12;glass=0;strokeWidth=1;shadow=0;fillColor=#21C0A5;strokeColor=#006658;labelBackgroundColor=none;fontColor=#5C5C5C;sketch=1;curveFitting=1;jiggle=2;" vertex="1" parent="WIyWlLk6GJQsqaUBKTNV-1">
          <mxGeometry x="780" y="130" width="90" height="50" as="geometry" />
        </mxCell>
        <mxCell id="bAx6qzX-YRpUmAE7W-1l-28" style="edgeStyle=orthogonalEdgeStyle;rounded=1;sketch=1;hachureGap=4;jiggle=2;curveFitting=1;orthogonalLoop=1;jettySize=auto;html=1;entryX=0.5;entryY=0;entryDx=0;entryDy=0;fontFamily=Helvetica;fontSize=12;" edge="1" parent="WIyWlLk6GJQsqaUBKTNV-1" source="bAx6qzX-YRpUmAE7W-1l-22" target="WIyWlLk6GJQsqaUBKTNV-3">
          <mxGeometry relative="1" as="geometry" />
        </mxCell>
        <mxCell id="bAx6qzX-YRpUmAE7W-1l-22" value="开始" style="strokeWidth=1;html=1;shape=mxgraph.flowchart.start_2;whiteSpace=wrap;hachureGap=4;fontFamily=Helvetica;fontSize=12;sketch=1;curveFitting=1;jiggle=2;rounded=1;fillColor=#b0e3e6;strokeColor=#0e8088;" vertex="1" parent="WIyWlLk6GJQsqaUBKTNV-1">
          <mxGeometry x="75" y="10" width="40" height="40" as="geometry" />
        </mxCell>
        <mxCell id="bAx6qzX-YRpUmAE7W-1l-27" style="edgeStyle=orthogonalEdgeStyle;rounded=1;hachureGap=4;orthogonalLoop=1;jettySize=auto;html=1;exitX=0.5;exitY=1;exitDx=0;exitDy=0;entryX=0.5;entryY=0;entryDx=0;entryDy=0;fontFamily=Architects Daughter;fontSource=https%3A%2F%2Ffonts.googleapis.com%2Fcss%3Ffamily%3DArchitects%2BDaughter;fontSize=16;sketch=1;curveFitting=1;jiggle=2;" edge="1" parent="WIyWlLk6GJQsqaUBKTNV-1" source="bAx6qzX-YRpUmAE7W-1l-23" target="bAx6qzX-YRpUmAE7W-1l-25">
          <mxGeometry relative="1" as="geometry" />
        </mxCell>
        <mxCell id="bAx6qzX-YRpUmAE7W-1l-23" value="产品验收" style="rounded=1;whiteSpace=wrap;html=1;fontSize=12;glass=0;strokeWidth=1;shadow=0;fillColor=#21C0A5;strokeColor=#006658;labelBackgroundColor=none;fontColor=#5C5C5C;sketch=1;curveFitting=1;jiggle=2;" vertex="1" parent="WIyWlLk6GJQsqaUBKTNV-1">
          <mxGeometry x="780" y="210" width="90" height="50" as="geometry" />
        </mxCell>
        <mxCell id="bAx6qzX-YRpUmAE7W-1l-26" style="edgeStyle=orthogonalEdgeStyle;rounded=1;hachureGap=4;orthogonalLoop=1;jettySize=auto;html=1;fontFamily=Architects Daughter;fontSource=https%3A%2F%2Ffonts.googleapis.com%2Fcss%3Ffamily%3DArchitects%2BDaughter;fontSize=16;entryX=1;entryY=0.5;entryDx=0;entryDy=0;sketch=1;curveFitting=1;jiggle=2;" edge="1" parent="WIyWlLk6GJQsqaUBKTNV-1" source="bAx6qzX-YRpUmAE7W-1l-25" target="bAx6qzX-YRpUmAE7W-1l-20">
          <mxGeometry relative="1" as="geometry">
            <mxPoint x="930" y="200" as="targetPoint" />
            <Array as="points">
              <mxPoint x="920" y="315" />
              <mxPoint x="920" y="155" />
            </Array>
          </mxGeometry>
        </mxCell>
        <mxCell id="bAx6qzX-YRpUmAE7W-1l-30" style="edgeStyle=orthogonalEdgeStyle;rounded=1;sketch=1;hachureGap=4;jiggle=2;curveFitting=1;orthogonalLoop=1;jettySize=auto;html=1;exitX=0.5;exitY=1;exitDx=0;exitDy=0;fontFamily=Helvetica;fontSize=12;" edge="1" parent="WIyWlLk6GJQsqaUBKTNV-1" source="bAx6qzX-YRpUmAE7W-1l-25" target="bAx6qzX-YRpUmAE7W-1l-29">
          <mxGeometry relative="1" as="geometry" />
        </mxCell>
        <mxCell id="bAx6qzX-YRpUmAE7W-1l-25" value="上线" style="rounded=1;whiteSpace=wrap;html=1;fontSize=12;glass=0;strokeWidth=1;shadow=0;fillColor=#21C0A5;strokeColor=#006658;labelBackgroundColor=none;fontColor=#5C5C5C;sketch=1;curveFitting=1;jiggle=2;" vertex="1" parent="WIyWlLk6GJQsqaUBKTNV-1">
          <mxGeometry x="780" y="290" width="90" height="50" as="geometry" />
        </mxCell>
        <mxCell id="bAx6qzX-YRpUmAE7W-1l-29" value="开始" style="strokeWidth=1;html=1;shape=mxgraph.flowchart.start_2;whiteSpace=wrap;hachureGap=4;fontFamily=Helvetica;fontSize=12;sketch=1;curveFitting=1;jiggle=2;rounded=1;fillColor=#b0e3e6;strokeColor=#0e8088;" vertex="1" parent="WIyWlLk6GJQsqaUBKTNV-1">
          <mxGeometry x="805" y="370" width="40" height="40" as="geometry" />
        </mxCell>
      </root>
    </mxGraphModel>
  </diagram>
</mxfile>
